<svg height="100" viewBox="0 0 100 100" fill="none" xmlns="http://www.w3.org/2000/svg">
<path d="M96.5575 47.9429H39.4626C38.0722 47.9429 36.9437 49.0714 36.9437 50.4618C36.9437 51.8522 38.0722 52.9807 39.4626 52.9807H96.5575C97.9479 52.9807 99.0764 51.8522 99.0764 50.4618C99.0764 49.0714 97.9479 47.9429 96.5575 47.9429ZM39.4626 16.0369H96.5575C97.9479 16.0369 99.0764 14.9085 99.0764 13.5181C99.0764 12.1276 97.9479 10.9992 96.5575 10.9992H39.4626C38.0722 10.9992 36.9437 12.1276 36.9437 13.5181C36.9437 14.9085 38.0722 16.0369 39.4626 16.0369ZM15.953 74.8111H9.23594C4.1377 74.8178 0.00671705 78.9488 0 84.047V90.7641C0.00671705 95.8623 4.1377 99.9933 9.23594 100H15.953C21.0512 99.9933 25.1822 95.8623 25.1889 90.7641V84.047C25.1822 78.9488 21.0512 74.8178 15.953 74.8111ZM20.1511 90.7641C20.1478 93.0814 18.2704 94.9589 15.953 94.9622H9.23594C6.91856 94.9589 5.04114 93.0814 5.03778 90.7641V84.047C5.04114 81.7296 6.91856 79.8522 9.23594 79.8489H15.953C18.2704 79.8522 20.1478 81.7296 20.1511 84.047V90.7641ZM96.5575 84.8866H39.4626C38.0722 84.8866 36.9437 86.0151 36.9437 87.4055C36.9437 88.796 38.0722 89.9244 39.4626 89.9244H96.5575C97.9479 89.9244 99.0764 88.796 99.0764 87.4055C99.0764 86.0151 97.9479 84.8866 96.5575 84.8866ZM27.5265 37.7498L9.14861 57.8405L4.29219 53.0143C3.83879 52.5777 3.22418 52.309 2.5424 52.309C1.15197 52.309 0.0235096 53.4374 0.0235096 54.8279C0.0235096 55.513 0.298908 56.1377 0.742233 56.5911L7.45928 63.2611L7.50966 63.2813L7.53317 63.3317C7.96977 63.7414 8.56087 63.9933 9.20907 63.9933C9.87741 63.9933 10.4853 63.7246 10.9286 63.288L11.0193 63.251L11.0361 63.2141L11.0932 63.1738L31.2443 41.1453C31.6541 40.6986 31.9026 40.1008 31.9026 39.4458C31.9026 38.0554 30.7741 36.927 29.3837 36.927C28.6482 36.927 27.9866 37.2427 27.5265 37.7464L27.5231 37.7498H27.5265ZM27.5265 0.806045L9.14861 20.8967L4.29219 16.0705C3.83879 15.6339 3.22418 15.3652 2.5424 15.3652C1.15197 15.3652 0.0235096 16.4937 0.0235096 17.8841C0.0235096 18.5693 0.298908 19.194 0.742233 19.6474L7.45928 26.3207L7.50966 26.3409L7.53317 26.3913C7.96977 26.801 8.56087 27.0495 9.20907 27.0495C9.88413 27.0495 10.4954 26.7775 10.9387 26.3375L11.0193 26.3039L11.0327 26.2704L11.0898 26.2301L31.241 4.20151C31.6406 3.75819 31.8858 3.16709 31.8858 2.51889C31.8858 1.12846 30.7573 0 29.3669 0C28.6381 0 27.9832 0.308984 27.5231 0.802687L27.5265 0.806045Z" fill="black"/>
</svg>
