<svg height="100" viewBox="0 0 116 100" fill="none" xmlns="http://www.w3.org/2000/svg">
<path d="M105.769 7.69231H100V0H90.3846V7.69231H25V0H15.3846V7.69231H9.61538C7.06523 7.69231 4.61952 8.70535 2.81628 10.5086C1.01305 12.3118 0 14.7575 0 17.3077V90.3846C0 92.9348 1.01305 95.3805 2.81628 97.1837C4.61952 98.987 7.06523 100 9.61538 100H105.769C108.319 100 110.765 98.987 112.568 97.1837C114.372 95.3805 115.385 92.9348 115.385 90.3846V17.3077C115.385 14.7575 114.372 12.3118 112.568 10.5086C110.765 8.70535 108.319 7.69231 105.769 7.69231ZM9.61538 17.3077H105.769V26.9231H9.61538V17.3077ZM9.61538 90.3846V36.5385H105.769V90.3846H9.61538Z" fill="black"/>
<path d="M19.2305 50H27.692V59.2308H19.2305V50ZM19.2305 68.4615H27.692V77.6923H19.2305V68.4615ZM86.9228 50H95.3843V59.2308H86.9228V50ZM86.9228 68.4615H95.3843V77.6923H86.9228V68.4615ZM69.9997 50H78.4612V59.2308H69.9997V50ZM69.9997 68.4615H78.4612V77.6923H69.9997V68.4615ZM53.0766 50H61.5382V59.2308H53.0766V50ZM53.0766 68.4615H61.5382V77.6923H53.0766V68.4615ZM36.1535 50H44.6151V59.2308H36.1535V50ZM36.1535 68.4615H44.6151V77.6923H36.1535V68.4615Z" fill="black"/>
</svg>
