<svg height="100" viewBox="0 0 100 100" fill="none" xmlns="http://www.w3.org/2000/svg">
<path fill-rule="evenodd" clip-rule="evenodd" d="M45.0275 1.1438e-06H54.9725C61.9025 -4.88562e-05 67.414 -4.84288e-05 71.858 0.369002C76.4095 0.746952 80.2875 1.53775 83.829 3.3776C89.3085 6.22385 93.776 10.6915 96.6225 16.1708C98.4625 19.7127 99.253 23.5905 99.631 28.1419C100 32.5861 100 38.0975 100 45.0275V54.9725C100 61.9025 100 67.414 99.631 71.858C99.253 76.4095 98.4625 80.2875 96.6225 83.829C93.776 89.3085 89.3085 93.776 83.829 96.6225C80.2875 98.4625 76.4095 99.253 71.858 99.631C67.414 100 61.9025 100 54.9725 100H45.0275C38.0975 100 32.5861 100 28.1419 99.631C23.5905 99.253 19.7127 98.4625 16.1708 96.6225C10.6915 93.776 6.22385 89.3085 3.3776 83.829C1.53775 80.2875 0.746952 76.4095 0.369002 71.858C-4.84288e-05 67.414 -4.88562e-05 61.9025 1.1438e-06 54.9725V45.0275C-4.88562e-05 38.0974 -4.84288e-05 32.586 0.369002 28.1419C0.746952 23.5905 1.53775 19.7127 3.3776 16.1708C6.22385 10.6915 10.6915 6.22385 16.1708 3.3776C19.7127 1.53775 23.5905 0.746952 28.1419 0.369002C32.586 -4.84288e-05 38.0974 -4.88562e-05 45.0275 1.1438e-06ZM28.9696 10.3347C25.0478 10.6604 22.6571 11.2769 20.7805 12.2518C17.1276 14.1493 14.1493 17.1276 12.2518 20.7805C11.2769 22.6571 10.6604 25.0478 10.3347 28.9696C10.004 32.9513 10 38.0475 10 45.25V54.75C10 61.9525 10.004 67.0485 10.3347 71.0305C10.6604 74.9525 11.2769 77.343 12.2518 79.2195C14.1493 82.8725 17.1276 85.851 20.7805 87.7485C22.6571 88.723 25.0478 89.3395 28.9696 89.6655C32.9513 89.996 38.0475 90 45.25 90H54.75C61.9525 90 67.0485 89.996 71.0305 89.6655C74.9525 89.3395 77.343 88.723 79.2195 87.7485C82.8725 85.851 85.851 82.8725 87.7485 79.2195C88.723 77.343 89.3395 74.9525 89.6655 71.0305C89.996 67.0485 90 61.9525 90 54.75V45.25C90 38.0475 89.996 32.9513 89.6655 28.9696C89.3395 25.0478 88.723 22.6571 87.7485 20.7805C85.851 17.1276 82.8725 14.1493 79.2195 12.2518C77.343 11.2769 74.9525 10.6604 71.0305 10.3347C67.0485 10.004 61.9525 10 54.75 10H45.25C38.0475 10 32.9513 10.004 28.9696 10.3347ZM49.142 23.7868C51.9035 23.7868 54.142 26.0253 54.142 28.7868V53.6225L71.7765 60.3265C74.358 61.3075 75.655 64.1955 74.6735 66.7765C73.6925 69.358 70.8045 70.655 68.2235 69.6735L47.3655 61.745C45.425 61.007 44.142 59.147 44.142 57.071V28.7868C44.142 26.0253 46.3805 23.7868 49.142 23.7868Z" fill="#0F1729"/>
</svg>
