<svg height="100" viewBox="0 0 76 100" fill="current" xmlns="http://www.w3.org/2000/svg">
<path d="M64.4524 9.87433H63.3752V3.7702C63.3752 1.6158 61.7594 0 59.605 0C57.4506 0 55.8348 1.6158 55.8348 3.7702V9.87433H48.6535V3.7702C48.6535 1.6158 47.0377 0 44.8833 0C42.7289 0 41.1131 1.6158 41.1131 3.7702V9.87433H33.9318V3.7702C33.9318 1.6158 32.316 0 30.1616 0C28.0072 0 26.3914 1.6158 26.3914 3.7702V9.87433H19.2101V3.7702C19.2101 1.6158 17.5943 0 15.4399 0C13.2855 0 11.6697 1.6158 11.6697 3.7702V9.87433H10.5925C4.66786 9.87433 0 14.5422 0 20.4668V89.4075C0 95.3321 4.66786 100 10.5925 100H64.4524C70.377 100 75.0449 95.3321 75.0449 89.4075V20.4668C75.0449 14.7217 70.1975 9.87433 64.4524 9.87433ZM67.5045 89.4075C67.5045 91.0233 66.0682 92.4596 64.4524 92.4596H10.5925C8.97666 92.4596 7.54039 91.0233 7.54039 89.4075V20.4668C7.54039 18.851 8.97666 17.4147 10.5925 17.4147H11.6697V23.5189C11.6697 25.6732 13.2855 27.289 15.4399 27.289C17.5943 27.289 19.2101 25.6732 19.2101 23.5189V17.4147H26.3914V23.5189C26.3914 25.6732 28.0072 27.289 30.1616 27.289C32.316 27.289 33.9318 25.6732 33.9318 23.5189V17.4147H41.1131V23.5189C41.1131 25.6732 42.7289 27.289 44.8833 27.289C47.0377 27.289 48.6535 25.6732 48.6535 23.5189V17.4147H55.8348V23.5189C55.8348 25.6732 57.4506 27.289 59.605 27.289C61.7594 27.289 63.3752 25.6732 63.3752 23.5189V17.4147H64.4524C66.0682 17.4147 67.5045 18.851 67.5045 20.4668V89.4075Z" fill="current"/>
</svg>
