<svg height="100" viewBox="0 0 96 100" fill="none" xmlns="http://www.w3.org/2000/svg">
<path d="M47.8547 84.9644C29.758 84.9644 15.0352 72.309 15.0352 56.7531C15.0352 55.0924 16.3814 53.7461 18.0422 53.7461C19.7029 53.7461 21.0492 55.0924 21.0492 56.7531C21.0492 68.9928 33.0742 78.9504 47.8547 78.9504C49.5154 78.9504 50.8617 80.2967 50.8617 81.9574C50.8617 83.6182 49.5154 84.9644 47.8547 84.9644Z" fill="black"/>
<path d="M87.6721 32.7529C86.6846 31.4176 84.8019 31.1361 83.4664 32.1227C82.131 33.1102 81.849 34.9928 82.8361 36.3283C87.3234 42.3973 89.6953 49.4602 89.6953 56.7539C89.6953 77.2838 70.9258 93.9861 47.8549 93.9861C24.784 93.9861 6.01465 77.2836 6.01465 56.7537C6.01465 45.3527 11.9381 34.5652 21.957 27.5211L27.058 31.3924L23.5447 42.8674C23.21 43.9604 23.5242 45.1484 24.3551 45.9336C25.1861 46.7188 26.3904 46.9641 27.4625 46.5682L47.857 39.0291L68.2515 46.5682C68.591 46.6936 68.9437 46.7549 69.2937 46.7549C70.049 46.7549 70.7912 46.4701 71.3592 45.9336C72.1902 45.1488 72.5043 43.9602 72.1693 42.8674L68.6547 31.3924L82.2576 21.0688C83.2099 20.3459 83.6437 19.1274 83.3621 17.9653C83.0803 16.8033 82.1371 15.9184 80.9596 15.7115C77.1265 15.0389 73.0125 14.8633 68.7383 15.1893C60.832 15.7928 54.2387 17.9885 50.8611 19.3158V9.84631L57.6539 5.54846C59.0572 4.66057 59.4752 2.80314 58.5873 1.39963C57.6996 -0.0036912 55.8422 -0.42166 54.4385 0.466231L46.2463 5.64943C45.3752 6.2006 44.8471 7.15959 44.8471 8.19064V19.3147C41.4449 17.9795 34.856 15.7908 26.975 15.1891C25.581 15.0822 24.2068 15.0281 22.8908 15.0281H22.8228C20.0352 15.0281 17.318 15.2572 14.7477 15.7096C13.5701 15.9164 12.6273 16.8014 12.3459 17.9637C12.0645 19.1258 12.4984 20.344 13.4506 21.0666L16.9566 23.7276C6.26719 31.9051 0 43.9787 0 56.7539C0.000585937 80.5998 21.4682 100 47.8551 100C74.242 100 95.7094 80.5998 95.7094 56.7539C95.7094 48.1637 92.9301 39.8645 87.6721 32.7529ZM26.5178 21.1856C36.3504 21.9361 44.083 25.4938 44.6685 25.7686L46.5412 26.6787C47.3697 27.0811 48.3367 27.082 49.166 26.6809L51.0492 25.7692C51.1285 25.7313 59.0863 21.9574 69.1971 21.1856C70.2564 21.1047 71.3113 21.0578 72.3406 21.0457L63.3478 27.8703C62.3435 28.6326 61.9213 29.9406 62.2906 31.1461L64.6412 38.8211L48.9002 33.0024C48.2275 32.7537 47.4879 32.7537 46.8148 33.0024L31.073 38.8215L33.423 31.1459C33.7924 29.9404 33.3697 28.6326 32.3654 27.8703L23.3715 21.0447C24.3889 21.0563 25.4449 21.1035 26.5178 21.1856Z" fill="black"/>
</svg>
